<svg xmlns="http://www.w3.org/2000/svg" width="57" height="48.473" viewBox="0 0 57 48.473">
  <g id="Group_31" data-name="Group 31" transform="translate(-1155 -1651)">
    <rect id="Rectangle_13" data-name="Rectangle 13" width="46" height="46" rx="23" transform="translate(1166 1651)" fill="#fff" opacity="0.51"/>
    <g id="Icon_ionic-ios-bulb" data-name="Icon ionic-ios-bulb" transform="translate(1147.406 1647.625)">
      <path id="Path_305" data-name="Path 305" d="M42.084,19.793c0-9.077-8.168-16.418-17.245-16.418S7.594,10.727,7.594,19.793c0,3.612,1.538,6.537,3.519,9.333h-.035c1.27,1.748,2.494,2.062,3.67,4.078a13.052,13.052,0,0,1,2.179,6.49,1.869,1.869,0,0,0,1.864,1.783H30.9a1.864,1.864,0,0,0,1.864-1.748A14,14,0,0,1,34.906,33.2c1.177-2.016,2.4-2.33,3.67-4.078h-.012C40.546,26.33,42.084,23.4,42.084,19.793Z" transform="translate(0 0)" fill="#fff"/>
      <path id="Path_306" data-name="Path 306" d="M17.381,33.919h4.195a1.636,1.636,0,0,0,1.631-1.631h0a1.636,1.636,0,0,0-1.631-1.631H17.381a1.636,1.636,0,0,0-1.631,1.631h0A1.636,1.636,0,0,0,17.381,33.919Z" transform="translate(5.36 17.929)" fill="#fff"/>
      <path id="Path_307" data-name="Path 307" d="M15.975,30.825h8.856a1.636,1.636,0,0,0,1.631-1.631h0a1.636,1.636,0,0,0-1.631-1.631H15.975a1.636,1.636,0,0,0-1.631,1.631h0A1.636,1.636,0,0,0,15.975,30.825Z" transform="translate(4.436 15.896)" fill="#fff"/>
    </g>
  </g>
</svg>
