<svg xmlns="http://www.w3.org/2000/svg" width="28.29" height="22.977" viewBox="0 0 28.29 22.977">
  <path id="Icon_awesome-twitter" data-name="Icon awesome-twitter" d="M25.382,9.107c.018.251.018.5.018.754,0,7.665-5.834,16.5-16.5,16.5a16.385,16.385,0,0,1-8.9-2.6,12,12,0,0,0,1.4.072,11.612,11.612,0,0,0,7.2-2.477,5.808,5.808,0,0,1-5.421-4.021,7.312,7.312,0,0,0,1.1.09,6.132,6.132,0,0,0,1.526-.2,5.8,5.8,0,0,1-4.649-5.69v-.072a5.839,5.839,0,0,0,2.621.736,5.807,5.807,0,0,1-1.8-7.755A16.481,16.481,0,0,0,13.93,10.507a6.545,6.545,0,0,1-.144-1.328A5.8,5.8,0,0,1,23.82,5.212a11.415,11.415,0,0,0,3.68-1.4,5.782,5.782,0,0,1-2.549,3.2,11.623,11.623,0,0,0,3.339-.9,12.464,12.464,0,0,1-2.908,3Z" transform="translate(0 -3.381)" fill="#db6f47"/>
</svg>
