<svg xmlns="http://www.w3.org/2000/svg" width="821.15" height="477.982" viewBox="0 0 821.15 477.982">
  <g id="Group_2714" data-name="Group 2714" transform="translate(15.249 -3.789)">
    <g id="Group_2713" data-name="Group 2713" transform="translate(-14.95 4.039)">
      <path id="Path_9009" data-name="Path 9009" d="M99.985,174.145c54.083-16.282,99.858-22.964,148.511,8.933,22.129,14.513,40.72,35.947,67.449,42.134,35.467,8.212,74.755-14.766,104.39-30.892,16.311-8.891,33.186-25.67,50.9-31.63,13.323-4.489,24.3-.426,37.151,4.518,35.069,13.465,64.5,30.313,102.493,35.126,79.824,10.095,205.21,2.323,245.944-79.245,37.832,38.44,58.942,105.818,16.083,150.19-21.422,22.172-95.808,28.742-78.112,71.328,6.06,14.584,20.8,24.58,27.544,39,7.744,16.566,4.728,32.959,2.493,50.545-8.212,64.59,14.865,112.448,50.375,166.415C830.38,587.418,801.7,563.9,762.758,541.065c-29.734-17.444-54.58-14.78-85.3-.028-36.387,17.486-66.217,59.126-108.777,58.928-34.419-.156-68.639-18.321-99.477-31.52s-70.9-34.532-106.088-27.808c-32.337,6.173-51.422,38.468-83.2,48.776-66.415,21.536-137.278-20.033-203.75-23.853.906-39.53,14.88-62.963,40.081-92.242,35.779-41.555,91.123-89.649,30.015-135.239-25.414-18.971-90.583-39.814-61.815-81.891,7.306-10.674,21.865-14.709,29.677-24.551C132.5,208.425,116.878,194.548,99.985,174.145Z" transform="translate(-76.161 -123.089)" fill="none" stroke="#9b9b9b" stroke-linecap="round" stroke-linejoin="round" stroke-width="0.5"/>
      <path id="Path_9010" data-name="Path 9010" d="M76.51,436.665c61.4,5.168,127.9,31.46,187.766,5.861,29.944-12.812,47.5-34.674,81.781-36.273,36.159-1.684,71.953,12.4,105.633,23.66,30.2,10.081,62.508,22.95,94.86,22.356,44.031-.806,70.28-37.406,108.283-54.552,30.3-13.676,53.845-10.492,82.275,5.168,37.8,20.812,66.092,37.378,110.563,43.963" transform="translate(-76.019 -12.482)" fill="none" stroke="#9b9b9b" stroke-linecap="round" stroke-linejoin="round" stroke-width="0.5"/>
      <path id="Path_9011" data-name="Path 9011" d="M78.02,427.29c59.592,6.838,118.815,17.188,176.339-5.324,30.852-12.062,52.314-27.544,86.7-26.692,36.347.892,71.64,11.992,106.471,21.323,29.648,7.951,60.64,16.637,91.631,14.1,38.976-3.186,61.773-31.659,95.95-47.217,29.038-13.224,52.91-9.4,80.645,4.035,40.124,19.44,69.107,29.506,114.879,29.307" transform="translate(-75.39 -18.211)" fill="none" stroke="#9b9b9b" stroke-linecap="round" stroke-linejoin="round" stroke-width="0.5"/>
      <path id="Path_9012" data-name="Path 9012" d="M81.4,417.426c63.726,9.4,117.117,6.017,177.813-14.979,32.692-11.313,56.619-18.562,91.5-14.808,34.575,3.723,68.256,12.517,102.28,19.383,27.544,5.549,55.94,10.436,84.052,6.738,35.523-4.671,56.917-29.606,89.127-42.262,28.033-11.015,50.076-5.026,76.709,6,41.654,17.259,73.282,20.275,118.491,13.508" transform="translate(-73.983 -22.224)" fill="none" stroke="#9b9b9b" stroke-linecap="round" stroke-linejoin="round" stroke-width="0.5"/>
      <path id="Path_9013" data-name="Path 9013" d="M87.33,406.269c37.576,6.88,73.793,10.549,111.3,1.275,24.352-6.017,47.473-16.367,71.612-23.148,65.95-18.534,128.131,6.88,194.1,14.641,25.23,2.973,50.687,3.936,75.718-.991,31.2-6.145,52.484-27.453,81.92-37.037,26.692-8.692,47.842.128,72.844,9.132,43.267,15.575,78.089,11.27,122.2-1.02" transform="translate(-71.519 -25.637)" fill="none" stroke="#9b9b9b" stroke-linecap="round" stroke-linejoin="round" stroke-width="0.5"/>
      <path id="Path_9014" data-name="Path 9014" d="M96.51,393.212c39.317,8.848,75.181,13.437,113.774.227,25.542-8.735,48.7-22.03,75.562-27.1,64-12.063,127.155,24.1,192,24.154a241.531,241.531,0,0,0,67.054-9.43c27.624-7.928,51.721-27.99,79.711-32.678,24.764-4.134,44.144,8.607,66.756,15.984,43.523,14.2,81.693,2.84,123.588-13.38" transform="translate(-67.702 -29.74)" fill="none" stroke="#9b9b9b" stroke-linecap="round" stroke-linejoin="round" stroke-width="0.5"/>
      <path id="Path_9015" data-name="Path 9015" d="M109.63,377.677c38.991,10.816,74.134,17.81,112.218.948,23-10.18,42.9-25.045,68.5-28.544,39.5-5.381,74.656,14.329,111.863,23.759,28.68,7.264,58.416,10.7,87.781,5.875,23.447-3.85,45.164-13.38,66.927-22.47,21.536-9,47.458-25.909,71.612-24.253,19.962,1.374,36.6,15.291,54.481,22.717,45.192,18.787,87.386.636,129.307-19.071" transform="translate(-62.245 -35.851)" fill="none" stroke="#9b9b9b" stroke-linecap="round" stroke-linejoin="round" stroke-width="0.5"/>
      <path id="Path_9016" data-name="Path 9016" d="M127.41,359.688c35.947,12.517,70.422,23.688,105.04,2.556,19.025-11.6,33.257-27.453,56.945-28.771,39.857-2.209,77.586,26.477,115.771,35.268,30.7,7.079,61.943,7.383,91.688-3.666,38.284-14.229,90.387-70.9,133.541-53.078,18.08,7.462,30.7,25.6,47.742,35.14,43.3,24.21,88.715.2,128.273-20.559" transform="translate(-54.852 -45.966)" fill="none" stroke="#9b9b9b" stroke-linecap="round" stroke-linejoin="round" stroke-width="0.5"/>
      <path id="Path_9017" data-name="Path 9017" d="M144.59,328.625c30.821,9.6,60.37,18.872,91.631,6.866,16.776-6.443,29-15.589,47.913-14.527,36.415,2.039,72.237,23.688,108.41,30.071,31.389,5.551,62.707,6.6,93.528-2.507,40.18-11.878,94.9-66.359,137.264-54.552,18.151,5.069,31.829,22.086,48.194,30.725,41.992,22.129,81.781,7.505,122.821-10.549" transform="translate(-47.708 -52.723)" fill="none" stroke="#9b9b9b" stroke-linecap="round" stroke-linejoin="round" stroke-width="0.5"/>
      <path id="Path_9018" data-name="Path 9018" d="M145.06,303.334c28.175,6.5,55.869,12.656,84.85,8.919,17.075-2.209,31.474-5.733,48.875-3.087,65.836,10.01,125.428,40.337,194.067,27.283,23.035-4.376,44.428-14.087,65.368-24.3,19.639-9.572,43.651-28.3,66.217-28.811,21.774-.494,41.668,16.438,60.867,24.338,40.89,16.833,77.036,8,117.614-6.781" transform="translate(-47.514 -56.456)" fill="none" stroke="#9b9b9b" stroke-linecap="round" stroke-linejoin="round" stroke-width="0.5"/>
      <path id="Path_9019" data-name="Path 9019" d="M133.96,283.1c45.178,5.282,91.844,5.2,136.415,14.542,61.4,12.883,124.917,33.343,188.433,29.776a185.476,185.476,0,0,0,63.443-15.984c22.228-9.558,43.821-28.572,67.582-32.655,22.115-3.808,43.423,6.486,64.206,12.494,42.943,12.418,78.069,8.948,121.279-3.638" transform="translate(-52.128 -58.686)" fill="none" stroke="#9b9b9b" stroke-linecap="round" stroke-linejoin="round" stroke-width="0.5"/>
      <path id="Path_9020" data-name="Path 9020" d="M116.4,268.778c111.511-1.218,218.746,41.356,329.448,53.22a125.768,125.768,0,0,0,58.5-6.639c25.187-9.217,44.173-29.532,69.079-37.943,24.594-8.326,49.8-2.84,74.682,1.261,44.5,7.306,81.906,7.6,126.632-1.988" transform="translate(-59.429 -62.517)" fill="none" stroke="#9b9b9b" stroke-linecap="round" stroke-linejoin="round" stroke-width="0.5"/>
      <path id="Path_9021" data-name="Path 9021" d="M97.5,258.481c35.637-5.012,68.284-6.1,102.794,5.239,23.262,7.644,45.15,18.971,69.122,24.438,29.762,6.8,60.824,4.259,90.924,9.274,25.88,4.319,49.994,13.346,75.181,20.161,17.415,4.714,33.385,7.164,51.113,2.252,29.364-8.155,47.572-32.735,74.841-44.67,26.221-11.469,55.159-11.074,83.11-8.919,47.586,3.666,91.929,7.462,139.708,1.488" transform="translate(-67.289 -68.29)" fill="none" stroke="#9b9b9b" stroke-linecap="round" stroke-linejoin="round" stroke-width="0.5"/>
      <path id="Path_9022" data-name="Path 9022" d="M82.39,248.2c40.1-10.731,74.162-10.972,112.732,5.3,22.413,9.459,43.1,23.285,66.756,29.762,33.47,9.175,67.154-.327,101.09,4.643,23.827,3.5,44.556,12.778,66.614,21.746,57.141,23.262,79.441-19.735,128.245-42.773,75.224-35.5,169.672-7.505,249.4-8.578" transform="translate(-73.573 -74.208)" fill="none" stroke="#9b9b9b" stroke-linecap="round" stroke-linejoin="round" stroke-width="0.5"/>
      <path id="Path_9023" data-name="Path 9023" d="M76.18,236.417c38.766-15.49,70.451-17.415,108.425,1.556,26.6,13.281,50.616,33.95,79.37,42.7,32.394,9.853,59.819-4.206,92.341-4.333,27.4-.114,48.762,9.331,73.4,19.735,17.867,7.548,32.153,13.579,51.522,7.1,31.417-10.492,54.339-41.583,85.035-55.33,87.244-39.062,190.231-10.859,280.419.523" transform="translate(-76.154 -81.014)" fill="none" stroke="#9b9b9b" stroke-linecap="round" stroke-linejoin="round" stroke-width="0.5"/>
      <path id="Path_9024" data-name="Path 9024" d="M79.53,224.04c43.1-16.254,76.34-17.06,117.33,5.591,25.13,13.889,47.8,33.854,75.86,41.81,34.05,9.655,65.172-8.17,99.207-9.388,21.831-.778,41.072,4.163,61.5,10.915,54.921,18.151,83.746-18.378,135.083-34.277,95.751-29.648,201.669-4.475,299.093,1.3" transform="translate(-74.762 -86.036)" fill="none" stroke="#9b9b9b" stroke-linecap="round" stroke-linejoin="round" stroke-width="0.5"/>
      <path id="Path_9025" data-name="Path 9025" d="M87.57,214.919c44.329-15.672,78.705-17.188,119.976,7.463,24.225,14.482,45.746,35.353,73.324,43.508,34.319,10.137,65-8.848,98.472-14a169.22,169.22,0,0,1,56.676,1.389c50.431,8.777,84.921-15.419,134.12-25.088,101.754-19.991,207.291-.483,310.036-5.1" transform="translate(-71.418 -89.673)" fill="none" stroke="#9b9b9b" stroke-linecap="round" stroke-linejoin="round" stroke-width="0.5"/>
      <path id="Path_9026" data-name="Path 9026" d="M97.3,207.491c45.434-15.107,81.028-17.322,122.342,9.43,23.234,15.064,43.523,36.915,70.564,45.292,48.478,15.05,98.088-27.056,148.227-26.76,45.476.27,85.756-11.85,130.934-17.16,105.011-12.347,211.681,1.726,315.983-17.782" transform="translate(-67.373 -92.603)" fill="none" stroke="#9b9b9b" stroke-linecap="round" stroke-linejoin="round" stroke-width="0.5"/>
      <path id="Path_9027" data-name="Path 9027" d="M105.72,204.279c43.508-13.65,80.829-18.435,120.558,7.534,23.376,15.277,42.955,39.8,69.829,49.3,51.153,18.08,96.728-29.873,145.419-38.991,42.063-7.871,90.217-6.682,132.706-9,102.618-5.605,212.033,2.8,309.8-33.811" transform="translate(-63.87 -99.705)" fill="none" stroke="#9b9b9b" stroke-linecap="round" stroke-linejoin="round" stroke-width="0.5"/>
      <path id="Path_9028" data-name="Path 9028" d="M109.81,200.222c44.755-13.508,84.257-19.412,124.874,7.928,22.936,15.433,41.867,40.606,68.6,49.952,54.072,18.9,96.206-33.791,143-49.977,11.835-4.092,22.149-3.257,34.618-2.152,32.11,2.84,63.229,4.3,95.567,4.191,97.966-.327,215.092,3.257,300.623-51.252" transform="translate(-62.17 -108.19)" fill="none" stroke="#9b9b9b" stroke-linecap="round" stroke-linejoin="round" stroke-width="0.5"/>
      <path id="Path_9029" data-name="Path 9029" d="M106.57,191.162c49.526-14.723,91.66-20.769,135.921,10.279,22.149,15.547,40.777,38.866,67.676,46.425,57.076,16.027,96.728-39.289,143.4-58.644,11.926-4.941,21.76-2.874,34.135-.043,30.668,6.994,59.294,15.206,91.052,17.259,91.719,5.9,219.24,4.827,286.6-66.8" transform="translate(-63.519 -116.205)" fill="none" stroke="#9b9b9b" stroke-linecap="round" stroke-linejoin="round" stroke-width="0.5"/>
      <path id="Path_9030" data-name="Path 9030" d="M644.183,137.14c31.6,37.136,38.383,94.559-2.493,128.881-26.633,22.356-94.275,32.437-77.036,79.952C570.9,363.2,585.383,376.4,590.1,394.53c4.106,15.771.906,32.21-.764,48.08-6.046,57.34,21.831,98.159,55.02,143.352" transform="translate(125.81 -117.246)" fill="none" stroke="#9b9b9b" stroke-linecap="round" stroke-linejoin="round" stroke-width="0.5"/>
      <path id="Path_9031" data-name="Path 9031" d="M635.147,149.1c25.457,36.046,21.323,82.769-15.49,110.222-29.958,22.342-91.8,34.518-72.646,84.879,5.605,14.766,16.595,27.042,21.195,42.29,5.509,18.236,2.945,35.452,1.332,53.987-4.714,54.029,25.4,88.545,58.516,129.421" transform="translate(118.127 -112.27)" fill="none" stroke="#9b9b9b" stroke-linecap="round" stroke-linejoin="round" stroke-width="0.5"/>
      <path id="Path_9032" data-name="Path 9032" d="M620.369,159.04c24.58,33.965,2.493,75.21-27.609,95.51-32.635,22-80.645,35.722-61.9,85.557,6.994,18.619,21.152,32.621,24.438,53.078,2.323,14.482-.778,29.18-2.081,43.565-4.5,49.781,30.284,81.142,61.6,116.694" transform="translate(111.156 -108.137)" fill="none" stroke="#9b9b9b" stroke-linecap="round" stroke-linejoin="round" stroke-width="0.5"/>
      <path id="Path_9033" data-name="Path 9033" d="M601.568,167.03c14.116,28.68-2.493,61.08-26.633,77.842-22.907,15.927-50.431,19.511-62.167,49.909-5.719,14.823-1.954,25.809,4.347,39.786,7.8,17.3,20.9,29.748,24.9,49.057,3.751,18.051-1.36,35.24-2.167,53.305-1.9,42.489,37.7,72.3,64.377,100.806" transform="translate(104.219 -104.817)" fill="none" stroke="#9b9b9b" stroke-linecap="round" stroke-linejoin="round" stroke-width="0.5"/>
      <path id="Path_9034" data-name="Path 9034" d="M579.177,173.15c17.06,76.215-121.93,81.465-74.4,155.287,10.492,16.282,24.466,28.938,28.444,48.889,3.427,17.146-2.294,33.371-3.552,50.233-3.124,41.668,38.525,69.093,64.9,96.305" transform="translate(97.924 -102.271)" fill="none" stroke="#9b9b9b" stroke-linecap="round" stroke-linejoin="round" stroke-width="0.5"/>
      <path id="Path_9035" data-name="Path 9035" d="M554.8,177.46c-2.209,29.379-13.323,45.774-35.751,63.173-30.341,23.569-55.841,47.047-25.642,81.849,10.731,12.361,24.551,22.893,30.3,38.92,7.477,20.854-1.7,39.885-2.647,60.626-1.8,39.3,39.147,65.027,64.249,90.811" transform="translate(91.704 -100.478)" fill="none" stroke="#9b9b9b" stroke-linecap="round" stroke-linejoin="round" stroke-width="0.5"/>
      <path id="Path_9036" data-name="Path 9036" d="M529.648,180.05c-9.626,24.988-14.655,41.072-34.575,59.493-28.544,26.377-45.434,49.483-11.554,78.089,12.19,10.294,27.425,19.128,34.021,34.589,8.99,21.081-1.783,41.242-3.513,62.3-3.286,40.038,35.878,64.249,61.46,91.336" transform="translate(85.41 -99.402)" fill="none" stroke="#9b9b9b" stroke-linecap="round" stroke-linejoin="round" stroke-width="0.5"/>
      <path id="Path_9037" data-name="Path 9037" d="M504.947,180.98c-12.684,19.025-15.334,40.805-31.318,58.05-28.572,30.81-37.449,51.681,1.247,75.619,16.8,10.393,36.614,17.682,41.271,39.559,4.092,19.2-7.463,39.544-9.371,58.118-3.922,38.568,33.754,64.788,57.383,91.56" transform="translate(78.85 -99.015)" fill="none" stroke="#9b9b9b" stroke-linecap="round" stroke-linejoin="round" stroke-width="0.5"/>
      <path id="Path_9038" data-name="Path 9038" d="M481,180.34c-15.885,18.023-19.877,44.372-31.786,65.044-20.388,35.41-24.253,53.731,16.754,69.051,13.676,5.111,33.223,9.9,41.526,23.674,12.19,20.218-1.988,46.609-6.88,66.9-10.873,45.15,21.581,68.6,48.932,103.143" transform="translate(72.764 -99.281)" fill="none" stroke="#9b9b9b" stroke-linecap="round" stroke-linejoin="round" stroke-width="0.5"/>
      <path id="Path_9039" data-name="Path 9039" d="M461.086,178.19c-20.445,20.4-22.243,49.2-31.786,74.966-5.154,13.931-20.175,30.568-10.972,46.112,7.829,13.238,27.68,15.714,40.848,18.52,13.536,2.888,35.623,4.728,44.769,17.571,14,19.639-3.975,50.474-9.839,70.042-14.908,49.71,9.868,71.953,38.653,114.215" transform="translate(64.902 -100.175)" fill="none" stroke="#9b9b9b" stroke-linecap="round" stroke-linejoin="round" stroke-width="0.5"/>
      <path id="Path_9040" data-name="Path 9040" d="M442.946,174.61c-23.2,26.664-24.733,50.233-32.139,83.039-4.007,17.7-18.758,40.973-4.5,57.383,9.26,10.646,32.465,9.655,44.386,10.549,15.8,1.2,38.766-.469,48.535,14.556,12.531,19.27-8.468,52.669-15.448,71.427-5.111,13.818-12.19,29.364-12.048,44.542.27,28.53,24.7,60.2,37.633,83.365" transform="translate(58.59 -101.663)" fill="none" stroke="#9b9b9b" stroke-linecap="round" stroke-linejoin="round" stroke-width="0.5"/>
      <path id="Path_9041" data-name="Path 9041" d="M429.538,169.67c-31.148,35.31-31.645,65.353-38.44,109.609-1.94,12.656-12.176,35.353-3.879,47.756,11.114,16.637,38.312,12.261,54.906,11.611,14.144-.568,43.2-6.216,52.249,9.558,7.871,13.732-14.116,53.859-18.264,63.8-8.848,21.223-22.512,44.3-23.87,67.832-1.741,30.5,16.524,62.128,28.061,88.88" transform="translate(51.854 -103.717)" fill="none" stroke="#9b9b9b" stroke-linecap="round" stroke-linejoin="round" stroke-width="0.5"/>
      <path id="Path_9042" data-name="Path 9042" d="M408.783,161.41c-24.651,43.892-26.221,83.081-31.236,131.814-1.275,12.332-10.859,37.136-2.394,48.875,10.986,15.234,37.364,10.759,53.024,10.109,13.579-.568,42.063-5.963,51.014,8.919,8.013,13.346-11.926,51.579-15.9,61.418-8.72,21.621-22.836,44.826-24.818,68.568-2.675,31.843,15.856,63.076,28.6,90.7" transform="translate(46.727 -107.154)" fill="none" stroke="#9b9b9b" stroke-linecap="round" stroke-linejoin="round" stroke-width="0.5"/>
      <path id="Path_9043" data-name="Path 9043" d="M393.8,155.37C374.578,204.211,370.784,250,366.167,301.624c-1.1,12.3-10.066,37.971-1.585,49.653,10.634,14.667,35.637,11.157,50.957,11.2,13.732.043,40.848-3.921,49.6,10.873,8.17,13.8-9.726,48.151-14.229,58.8-8.848,20.939-24.281,43.026-27.567,65.936-4.543,31.8,13.8,61.5,27.155,88.729" transform="translate(42.268 -109.664)" fill="none" stroke="#9b9b9b" stroke-linecap="round" stroke-linejoin="round" stroke-width="0.5"/>
      <path id="Path_9044" data-name="Path 9044" d="M383.4,151.44c-15.007,51.153-21.817,101.09-27,153.958-1.232,12.642-9.7,37.914-1.36,50.048,10.223,14.894,33.286,12.616,48.7,14.272,14.385,1.556,39.445-.636,48.012,14.809,8.184,14.766-7.477,44.13-13.11,56.054-9.274,19.639-26.576,39.388-31.588,60.768-7.193,30.668,10.7,57.928,24.267,83.959" transform="translate(38.297 -111.299)" fill="none" stroke="#9b9b9b" stroke-linecap="round" stroke-linejoin="round" stroke-width="0.5"/>
      <path id="Path_9045" data-name="Path 9045" d="M375.578,149.49A1567.209,1567.209,0,0,0,346.9,305.444c-5.963,48.35-4.007,58.189,44.7,68.719,14.979,3.243,38.156,3.993,46.24,20.133,7.951,15.871-5.1,40.109-12.347,53.206-10.038,18.173-29.393,34.461-36.444,53.952-10.393,28.728,6.866,52.882,20.474,77.345" transform="translate(35.418 -112.109)" fill="none" stroke="#9b9b9b" stroke-linecap="round" stroke-linejoin="round" stroke-width="0.5"/>
      <path id="Path_9047" data-name="Path 9047" d="M366.911,151.06c-7.221,49.611-24.137,94.633-35.325,143.068-10.563,45.661-4.475,61.5,36.881,81.5,41.626,20.133,61.787,51.366,21.959,89.507-10.759,10.308-27.51,16.566-36.543,28.089-18.662,23.813-3.865,40.479,11,63.528" transform="translate(28.157 -111.456)" fill="none" stroke="#9b9b9b" stroke-linecap="round" stroke-linejoin="round" stroke-width="0.5"/>
      <path id="Path_9048" data-name="Path 9048" d="M362.939,154.34c-5.591,48.492-23.645,85.234-38.619,130.355-15.476,46.652-5.31,62.948,31.5,88.405,31.926,22.086,64.434,54.211,23.163,88.63-12.574,10.478-29.79,14.343-42.026,24.651-24.04,20.246-10.322,34.87,5.8,57.908" transform="translate(24.127 -110.093)" fill="none" stroke="#9b9b9b" stroke-linecap="round" stroke-linejoin="round" stroke-width="0.5"/>
      <path id="Path_9049" data-name="Path 9049" d="M358.537,159.12c-2.556,30.753-6.653,55.642-21.067,82.939-6.753,12.8-15.658,24.352-21.521,37.676-18.886,42.958-4.333,61.815,26.857,89.027,26.263,22.907,63.627,60.768,21.479,90.146-13.761,9.587-31.318,11.642-44.925,20.812-26.32,17.739-14.144,30.37,3.328,53.135" transform="translate(18.622 -108.104)" fill="none" stroke="#9b9b9b" stroke-linecap="round" stroke-linejoin="round" stroke-width="0.5"/>
      <path id="Path_9050" data-name="Path 9050" d="M352.778,165.28c-1.4,30.313-3.822,53.206-21.067,78.45-7.562,11.074-17.995,20.062-24.58,31.9-21.465,38.582-4.007,59.791,22.149,87.2,22.456,23.546,60.2,64.067,20.246,90.6-14.229,9.444-31.758,11.143-46.569,19.085-29.009,15.547-15.022,30.256,2.717,51.479" transform="translate(11.2 -105.543)" fill="none" stroke="#9b9b9b" stroke-linecap="round" stroke-linejoin="round" stroke-width="0.5"/>
      <path id="Path_9051" data-name="Path 9051" d="M342.2,172.71c0,29.592-.383,51.351-20.19,74.219-8.2,9.473-19.749,15.885-27.042,26.292-23.333,33.286-4.035,56.406,17.486,82.349,19.4,23.39,55.528,64.377,19.7,89.564-13.959,9.811-31.954,11.765-46.57,20.161-29.915,17.174-14.6,32.536,4.543,53.953" transform="translate(3.918 -102.453)" fill="none" stroke="#9b9b9b" stroke-linecap="round" stroke-linejoin="round" stroke-width="0.5"/>
      <path id="Path_9052" data-name="Path 9052" d="M325.473,181.28c1.67,27.311,3.992,49.6-16.705,69.758-9.782,9.53-22.95,13.86-31.673,24.818-21.081,26.5-2.451,49.455,14.738,71.442,19.5,24.9,50.119,62.934,17.018,88.715-13,10.123-30.426,13.69-43.446,23.756-28.033,21.678-8.07,39.658,11.285,60.327" transform="translate(-3.249 -98.892)" fill="none" stroke="#9b9b9b" stroke-linecap="round" stroke-linejoin="round" stroke-width="0.5"/>
      <path id="Path_9053" data-name="Path 9053" d="M301.1,190.86c3.342,24.75,8.948,48.719-11.679,67.054-10.592,9.416-26.178,11.057-35.3,22.717-17.038,21.731-.977,39.431,12.474,57.36,15.618,20.854,38.5,48.7,25.613,75.888-8.891,18.758-34.561,26.692-47.472,42.134-24.068,28.785.284,50.133,21.067,72.038" transform="translate(-10.219 -94.907)" fill="none" stroke="#9b9b9b" stroke-linecap="round" stroke-linejoin="round" stroke-width="0.5"/>
      <path id="Path_9054" data-name="Path 9054" d="M282.575,195.76c4.461,23.532,11.358,46.453-8.621,64.235-10.35,9.2-25.684,10.407-34.674,21.788-16.8,21.3-.608,34.075,13.508,49.895,19,21.3,31.911,47.137,19.241,75.548-9.544,21.379-31.091,34.291-43.3,53.788-20.63,32.959,1.232,56.747,22.433,82.349" transform="translate(-16.163 -92.87)" fill="none" stroke="#9b9b9b" stroke-linecap="round" stroke-linejoin="round" stroke-width="0.5"/>
      <path id="Path_9055" data-name="Path 9055" d="M267.49,195.99c5.381,22.935,13.062,44.67-6.724,62.187-10.407,9.217-25.994,10.152-35.083,21.581-17.606,22.129,1.247,33.03,16.154,48.066,22.527,22.717,26.746,49.156,14.016,78.941-9.768,22.879-29.929,38.948-41.3,60.768-18.122,34.788.537,59.28,21.379,87.46" transform="translate(-21.663 -92.773)" fill="none" stroke="#9b9b9b" stroke-linecap="round" stroke-linejoin="round" stroke-width="0.5"/>
      <path id="Path_9056" data-name="Path 9056" d="M254.872,192.54c6.443,24.026,14.13,43.934-6.937,61.619-9.967,8.368-23.884,9.7-33.059,19.593-21.717,23.376,1.516,36.557,18.08,52.3,29.776,28.317,22.765,64.01,3.044,97.776-9.939,16.989-24,31.417-33.044,48.961-18.25,35.424-2.945,60.032,17.217,90.541" transform="translate(-26.827 -94.207)" fill="none" stroke="#9b9b9b" stroke-linecap="round" stroke-linejoin="round" stroke-width="0.5"/>
      <path id="Path_9057" data-name="Path 9057" d="M243.882,186.41c7.292,24.3,14.865,42.929-6.5,60.753-10.421,8.692-24.946,10.137-34.589,20.332-24.026,25.386,5.509,41.427,22.893,58.246,33.03,31.954,21.337,69.871-1.062,106.2-10.35,16.754-24.239,31.346-33.385,48.875-17.572,33.669-5.14,57.51,12.883,87.88" transform="translate(-31.838 -96.758)" fill="none" stroke="#9b9b9b" stroke-linecap="round" stroke-linejoin="round" stroke-width="0.5"/>
      <path id="Path_9058" data-name="Path 9058" d="M233.564,178.57c8.155,24.736,15.433,42.177-6.315,60.271-10.93,9.087-26.124,10.79-36.316,21.394-26.533,27.652,10.152,47.969,28.4,66.259,36.33,36.443,21.888,76.172-4.827,115.348-10.9,16-24.818,30.1-34.334,47.032-17.322,30.864-7.8,53.248,7.644,82.613" transform="translate(-36.768 -100.018)" fill="none" stroke="#9b9b9b" stroke-linecap="round" stroke-linejoin="round" stroke-width="0.5"/>
      <path id="Path_9059" data-name="Path 9059" d="M222.262,170.03c9.061,25.173,16.041,41.569-6.046,60.046-11.412,9.558-27.3,11.6-37.957,22.64-28.964,30.015,15.121,55.245,34.305,75.153,39.6,41.1,23.8,82.811-8.354,124.48-32.86,42.574-58.53,64.476-33.485,119.721" transform="translate(-41.027 -103.569)" fill="none" stroke="#9b9b9b" stroke-linecap="round" stroke-linejoin="round" stroke-width="0.5"/>
      <path id="Path_9060" data-name="Path 9060" d="M210.617,161.76c10.066,25.443,16.89,40.973-5.367,59.933-11.793,10.038-28.26,12.474-39.3,23.983-31.034,32.352,20.19,62.324,40.365,83.717,42.759,45.348,26.221,89.507-11.821,132.893-32.238,36.77-59.209,56.945-39.982,108.567" transform="translate(-46.26 -107.007)" fill="none" stroke="#9b9b9b" stroke-linecap="round" stroke-linejoin="round" stroke-width="0.5"/>
      <path id="Path_9061" data-name="Path 9061" d="M196.831,154.76c11.185,25.4,18.222,40.294-3.975,59.791-11.963,10.507-28.839,13.346-40.067,25.315-32.465,34.6,25.1,68.216,46.269,90.754,45.874,48.841,28.075,95.609-15.334,139.856-30.991,31.573-58.729,49.909-45.292,97.682" transform="translate(-51.713 -109.917)" fill="none" stroke="#9b9b9b" stroke-linecap="round" stroke-linejoin="round" stroke-width="0.5"/>
      <path id="Path_9062" data-name="Path 9062" d="M179.941,150.01c12.46,24.9,20.275,39.346-1.516,59.493-11.821,10.944-28.9,14.2-40.01,26.519-33,36.671,29.677,71.967,51.763,95.044,49.142,51.323,28.132,100.113-19.1,144.669-29.364,27.695-56.534,44.641-48.52,88.687" transform="translate(-57.46 -111.894)" fill="none" stroke="#9b9b9b" stroke-linecap="round" stroke-linejoin="round" stroke-width="0.5"/>
      <path id="Path_9063" data-name="Path 9063" d="M158.914,148.5c13.8,23.785,23.234,38.014,2.309,58.913-11.3,11.285-28.26,14.88-38.88,27.5-32.337,38.423,33.663,72.589,56.562,95.382,52.817,52.555,24.989,101.942-23.205,146.595-27.652,25.627-52.215,42.361-48.776,83.1" transform="translate(-63.506 -112.522)" fill="none" stroke="#9b9b9b" stroke-linecap="round" stroke-linejoin="round" stroke-width="0.5"/>
      <path id="Path_9064" data-name="Path 9064" d="M132.756,151.21c15.078,21.9,27.26,36.131,7.815,57.894-10.265,11.5-26.76,15.4-36.4,28.112C74,276.987,141.039,306.394,164.568,327.8c100.99,91.887-82.232,137.942-72.958,227.4" transform="translate(-69.881 -111.393)" fill="none" stroke="#9b9b9b" stroke-linecap="round" stroke-linejoin="round" stroke-width="0.5"/>
    </g>
  </g>
</svg>
