<svg xmlns="http://www.w3.org/2000/svg"  viewBox="0 0 421.546 346.401">
  <g id="Group_28" data-name="Group 28" transform="translate(-450.513 -2887.944)">
    <g id="XMLID_1488_" transform="translate(471.739 3073.778) rotate(-11)">
      <g id="XMLID_1329_" transform="translate(0 0)">
        <path id="XMLID_1785_" d="M85.707,163.572a71.091,71.091,0,0,1-10.154-1.1l.758-4.206a67.553,67.553,0,0,0,9.511,1.023Zm10.193-.455-.531-4.244a61.148,61.148,0,0,0,9.359-1.895l1.174,4.13A59.963,59.963,0,0,1,95.9,163.117Zm-30.2-3.183a72.3,72.3,0,0,1-9.4-3.9L58.2,152.2a71.728,71.728,0,0,0,8.866,3.675Zm49.826-2.349-1.781-3.9a66.912,66.912,0,0,0,8.374-4.623l2.349,3.6A71.015,71.015,0,0,1,115.527,157.585Zm-68.051-6.631a86.714,86.714,0,0,1-8.109-6.062l2.766-3.3a90.791,90.791,0,0,0,7.73,5.759Zm85.063-4.547-2.88-3.183a71.82,71.82,0,0,0,6.669-6.9l3.3,2.766A64.567,64.567,0,0,1,132.539,146.408Zm-100.6-8.374c-2.311-2.349-4.547-4.888-6.707-7.54l3.334-2.728c2.084,2.539,4.243,4.964,6.441,7.237Zm113.67-7.2-3.637-2.273a75.583,75.583,0,0,0,4.509-8.487l3.9,1.743A78.72,78.72,0,0,1,145.611,130.835ZM19.172,122.423c-1.932-2.8-3.751-5.684-5.38-8.525l3.713-2.122C19.059,114.5,20.839,117.27,22.7,120Zm134.737-10.155-4.13-1.213a82.846,82.846,0,0,0,2.2-9.4l4.244.72A83.524,83.524,0,0,1,153.909,112.269ZM9.131,104.994a98.7,98.7,0,0,1-3.789-9.359l4.054-1.4c1.061,2.993,2.273,6.025,3.637,8.98ZM157.319,92.3l-4.281-.227c.038-.909.076-1.781.114-2.69.076-2.5.189-4.926.379-7.237l4.282.341c-.189,2.273-.3,4.585-.379,7.01C157.433,90.444,157.4,91.391,157.319,92.3ZM2.5,85.9A97.932,97.932,0,0,1,.72,75.932l4.244-.53c.417,3.183.985,6.4,1.705,9.51Zm156.562-13-4.206-.758a98.475,98.475,0,0,1,2.311-9.851L161.3,63.5A81,81,0,0,0,159.062,72.9ZM0,65.815V64.451c0-2.918.151-5.873.417-8.753l4.282.417c-.265,2.766-.379,5.57-.379,8.336V65.74ZM164.556,54.486l-3.941-1.705a67.912,67.912,0,0,1,4.736-9.018l3.637,2.273A68.63,68.63,0,0,0,164.556,54.486ZM6.062,46.529,1.857,45.7c.644-3.259,1.478-6.555,2.463-9.814l4.092,1.25A92.031,92.031,0,0,0,6.062,46.529Zm168.535-8.3-3.258-2.766A68.309,68.309,0,0,1,178.5,28.19l2.842,3.221A67.285,67.285,0,0,0,174.6,38.231ZM11.632,27.963,7.654,26.372C8.9,23.265,10.306,20.2,11.822,17.2l3.827,1.932C14.171,22.014,12.845,25.008,11.632,27.963ZM189,25.69l-2.311-3.6a70.318,70.318,0,0,1,8.942-4.888l1.781,3.9A58.238,58.238,0,0,0,189,25.69Zm17.392-8.071-1.251-4.092a55.215,55.215,0,0,1,10.117-2.236l.417,4.282A53.152,53.152,0,0,0,206.387,17.619Zm-186-7.01L16.747,8.374C18.528,5.456,20.423,2.652,22.393,0l3.448,2.539Q23,6.4,20.385,10.609Z" fill="#dadadc"/>
      </g>
      <g id="XMLID_1334_" transform="translate(80.516 101.413)">
        <path id="XMLID_1780_" d="M15,29.952A14.939,14.939,0,0,1,4.888,26.011l2.917-3.145a10.632,10.632,0,0,0,7.237,2.8l.417,4.282Zm10.723-4.509L22.658,22.45a10.744,10.744,0,0,0,3.031-7.464c0-.417-.038-.8-.076-1.213l4.244-.493a12.884,12.884,0,0,1,.114,1.705A14.823,14.823,0,0,1,25.727,25.443ZM.038,15.819c0-.265-.038-.568-.038-.834A14.882,14.882,0,0,1,3.675,5.172l3.258,2.8a10.774,10.774,0,0,0-2.614,7.01v.606ZM21.749,6.725a11.113,11.113,0,0,0-7.692-2.387L13.716.057A15.064,15.064,0,0,1,24.477,3.391Z" transform="translate(0 0)" fill="#dadadc"/>
      </g>
    </g>
    <g id="XMLID_977_" transform="translate(615.479 2935.945) rotate(-11)">
      <g id="XMLID_1327_" transform="translate(30.501 82.07)">
        <path id="XMLID_1775_" d="M.266,39.406,91.279,28.645a.24.24,0,0,0,.075-.455L34.178,0c-.114.038-.189.038-.3.076L.039,39.027A.249.249,0,0,0,.266,39.406Z" transform="translate(2.537 2.198)" fill="#db6f47"/>
        <path id="XMLID_1776_" d="M1.629,43.953,0,41.187l1.023-1.4L35.314.265,36.753,0,37.7.265l58.616,28.91L96.2,30.994a2.372,2.372,0,0,1-2.084,1.97ZM37.095,4.774,7.465,38.913l79.758-9.435Z" transform="translate(0 0)" fill="#db6f47"/>
      </g>
      <g id="XMLID_1326_" transform="translate(30.729 35.048)">
        <path id="XMLID_1771_" d="M34.1,47.022.42,85.821A.238.238,0,0,1,0,85.632L11.938,19.059a.132.132,0,0,1,.038-.076L24.064.114,24.291,0,195.44,12.542a.236.236,0,0,1,.076.455L96.13,58.54h-.151L34.37,46.946A.545.545,0,0,0,34.1,47.022Z" transform="translate(2.119 2.236)" fill="#db6f47"/>
        <path id="XMLID_1772_" d="M3.107,90.671l-1.743-.644A2.365,2.365,0,0,1,.038,87.451L12.276,20.006,24.7.606l1.061-.53L26.6,0,199.416,12.655l.53,1.819a2.415,2.415,0,0,1-1.326,2.577L98.59,62.784l-.341.038-.493-.038-60.548-11.4ZM16.065,22.014,5.419,81.426,34.973,47.4l.53-.189.72,2.046-.607-2.084.531-.189.682.076,61,11.481,92.148-42.21L27.319,4.4Z" transform="translate(0 0)" fill="#0d1321"/>
      </g>
      <g id="XMLID_1320_" transform="translate(64.792 47.552)">
        <path id="XMLID_1767_" d="M161.641.245,51.3,101.3a.143.143,0,0,1-.227-.038L.04,34.422a.132.132,0,0,1,.076-.227L161.489.017A.137.137,0,0,1,161.641.245Z" transform="translate(2.386 2.408)" fill="#fff"/>
        <path id="XMLID_1768_" d="M54.41,105.941l-2.008-.151-.682-.834L0,37.208l.8-2.349,1.288-.341L165.087,0l1.667,3.031L165.5,4.319h0ZM6.024,38.042l47.817,62.633L157.168,6.025Z" transform="translate(0 0)" fill="#0d1321"/>
      </g>
      <g id="XMLID_1318_" transform="translate(0 0)">
        <path id="XMLID_1260_" d="M225.324,47.6,42.239,53.962c-.038-.038-.076-.038-.114-.076L.03.233A.142.142,0,0,1,.181.006l225.18,47.287A.153.153,0,0,1,225.324,47.6Z" transform="translate(2.623 2.267)" fill="#fff"/>
        <path id="XMLID_1764_" d="M44.407,58.427l-.947-.417-.455-.455L0,2.728,1.591,0,3.221.265,230.258,47.931l-.189,3.941-2.046.19ZM7.692,5.532,45.771,54.069,211.464,48.31Z" fill="#0d1321"/>
      </g>
    </g>
    <g id="XMLID_977_2" data-name="XMLID_977_" transform="translate(510.597 2965.109) rotate(-148)">
      <g id="XMLID_1327_2" data-name="XMLID_1327_" transform="translate(9.333 8.405)">
        <path id="XMLID_1775_2" data-name="XMLID_1775_" d="M.082,0,27.93,3.294a.073.073,0,0,1,.023.139L10.458,12.059c-.035-.012-.058-.012-.093-.023L.012.117A.076.076,0,0,1,.082,0Z" transform="translate(0.776 0.718)" fill="#db6f47"/>
        <path id="XMLID_1776_2" data-name="XMLID_1776_" d="M.5,0,0,.846l.313.429L10.805,13.368l.441.081.29-.081L29.471,4.522l-.035-.556a.726.726,0,0,0-.638-.6ZM11.35,11.988,2.284,1.542l24.4,2.887Z" fill="#db6f47"/>
      </g>
      <g id="XMLID_1326_2" data-name="XMLID_1326_" transform="translate(9.402 8.498)">
        <path id="XMLID_1771_2" data-name="XMLID_1771_" d="M10.435,11.9.128.026A.073.073,0,0,0,0,.084l3.652,20.37a.04.04,0,0,0,.012.023l3.7,5.774.069.035L59.8,22.449a.072.072,0,0,0,.023-.139L29.414,8.374h-.046L10.517,11.922A.167.167,0,0,1,10.435,11.9Z" transform="translate(0.648 0.774)" fill="#db6f47"/>
        <path id="XMLID_1772_2" data-name="XMLID_1772_" d="M.951,0,.417.2A.724.724,0,0,0,.012.985L3.756,21.623l3.8,5.936.325.162.255.023,52.879-3.872.162-.556a.739.739,0,0,0-.406-.788L30.167,8.533l-.1-.012-.151.012-18.527,3.49ZM4.916,21.008,1.658,2.829,10.7,13.24l.162.058.22-.626-.186.638.162.058.209-.023L29.935,9.832l28.2,12.916L8.359,26.4Z" fill="#0d1321"/>
      </g>
      <g id="XMLID_1320_2" data-name="XMLID_1320_" transform="translate(19.825 0)">
        <path id="XMLID_1767_2" data-name="XMLID_1767_" d="M49.46,30.933,15.7.013a.044.044,0,0,0-.07.012L.012,20.476a.04.04,0,0,0,.023.07L49.413,31A.042.042,0,0,0,49.46,30.933Z" transform="translate(0.73 0.671)" fill="#fff"/>
        <path id="XMLID_1768_2" data-name="XMLID_1768_" d="M16.649,0l-.615.046L15.826.3,0,21.031l.243.719.394.1L50.514,32.416l.51-.928-.383-.394h0ZM1.843,20.776,16.475,1.612,48.091,30.573Z" fill="#0d1321"/>
      </g>
      <g id="XMLID_1318_2" data-name="XMLID_1318_" transform="translate(0 29.089)">
        <path id="XMLID_1260_2" data-name="XMLID_1260_" d="M68.946,1.948,12.925,0c-.012.012-.023.012-.035.023L.009,16.44a.044.044,0,0,0,.046.07l68.9-14.469A.047.047,0,0,0,68.946,1.948Z" transform="translate(0.802 0.672)" fill="#fff"/>
        <path id="XMLID_1764_2" data-name="XMLID_1764_" d="M13.588,0,13.3.128l-.139.139L0,17.043l.487.835.5-.081L70.455,3.211,70.4,2.006l-.626-.058ZM2.354,16.185,14.005,1.333,64.7,3.1Z" fill="#0d1321"/>
      </g>
    </g>
    <g id="XMLID_977_3" data-name="XMLID_977_" transform="translate(557.139 3017.404) rotate(-19)">
      <g id="XMLID_1327_3" data-name="XMLID_1327_" transform="translate(5.707 15.356)">
        <path id="XMLID_1775_3" data-name="XMLID_1775_" d="M.05,7.373,17.079,5.36a.045.045,0,0,0,.014-.085L6.395,0c-.021.007-.035.007-.057.014L.007,7.3A.047.047,0,0,0,.05,7.373Z" transform="translate(0.475 0.411)" fill="#db6f47"/>
        <path id="XMLID_1776_3" data-name="XMLID_1776_" d="M.3,8.224,0,7.706l.191-.262L6.607.05,6.877,0l.177.05L18.021,5.459,18,5.8a.444.444,0,0,1-.39.369ZM6.941.893,1.4,7.281,16.32,5.516Z" fill="#db6f47"/>
      </g>
      <g id="XMLID_1326_3" data-name="XMLID_1326_" transform="translate(5.749 6.558)">
        <path id="XMLID_1771_3" data-name="XMLID_1771_" d="M6.381,8.8l-6.3,7.26A.045.045,0,0,1,0,16.022L2.234,3.566a.025.025,0,0,1,.007-.014L4.5.021,4.545,0,36.568,2.347a.044.044,0,0,1,.014.085l-18.6,8.522h-.028L6.431,8.784A.1.1,0,0,0,6.381,8.8Z" transform="translate(0.396 0.418)" fill="#db6f47"/>
        <path id="XMLID_1772_3" data-name="XMLID_1772_" d="M.581,16.965l-.326-.121a.442.442,0,0,1-.248-.482L2.3,3.743,4.622.113l.2-.1L4.977,0,37.312,2.368l.1.34a.452.452,0,0,1-.248.482L18.447,11.747l-.064.007-.092-.007L6.962,9.613ZM3.006,4.119,1.014,15.235l5.53-6.366.1-.035.135.383-.113-.39.1-.035.128.014,11.414,2.148,17.242-7.9L5.112.822Z" fill="#0d1321"/>
      </g>
      <g id="XMLID_1320_3" data-name="XMLID_1320_" transform="translate(12.123 8.897)">
        <path id="XMLID_1767_3" data-name="XMLID_1767_" d="M30.244.046,9.6,18.953a.027.027,0,0,1-.043-.007L.007,6.441A.025.025,0,0,1,.022,6.4L30.216,0A.026.026,0,0,1,30.244.046Z" transform="translate(0.446 0.45)" fill="#fff"/>
        <path id="XMLID_1768_3" data-name="XMLID_1768_" d="M10.18,19.822,9.8,19.794l-.128-.156L0,6.962l.149-.44L.39,6.459,30.889,0,31.2.567l-.234.241h0ZM1.127,7.118l8.947,11.719L29.407,1.127Z" fill="#0d1321"/>
      </g>
      <g id="XMLID_1318_3" data-name="XMLID_1318_" transform="translate(0 0)">
        <path id="XMLID_1260_3" data-name="XMLID_1260_" d="M42.159,8.906,7.9,10.1c-.007-.007-.014-.007-.021-.014L.006.044A.027.027,0,0,1,.034,0L42.167,8.849A.029.029,0,0,1,42.159,8.906Z" transform="translate(0.491 0.424)" fill="#fff"/>
        <path id="XMLID_1764_3" data-name="XMLID_1764_" d="M8.309,10.932l-.177-.078-.085-.085L0,.51.3,0,.6.05l42.48,8.919-.035.737-.383.035Zm-6.87-9.9,7.125,9.082,31-1.078Z" fill="#0d1321"/>
      </g>
    </g>
  </g>
</svg>
