<svg xmlns="http://www.w3.org/2000/svg" width="390.617" height="394.924" viewBox="0 0 390.617 394.924">
  <g id="Group_32" data-name="Group 32" transform="translate(-1072.46 -199.055)">
    <g id="Layer_9" transform="translate(890.24 152.665)">
      <g id="Group_9" data-name="Group 9" transform="translate(182.22 46.39)">
        <path id="Path_39" data-name="Path 39" d="M572.837,241.7c0,107.846-87.423,195.308-195.308,195.308-107.847,0-195.308-87.423-195.308-195.308,0-107.847,87.423-195.308,195.308-195.308C485.375,46.428,572.837,133.852,572.837,241.7Z" transform="translate(-182.22 -46.39)" fill="#db6f47"/>
        <path id="Path_40" data-name="Path 40" d="M199.06,162.906c4.615-33.269,87.077-77,143.385-70.693s108.923,43.346,122.385,70.693-6.308,125.885-6.308,125.885H221.1C221.1,288.752,191.022,220.521,199.06,162.906Z" transform="translate(-138.176 82.287)" fill="#2d3037"/>
        <path id="Path_41" data-name="Path 41" d="M211.31,131.106s-6.731-12.192,8.846-31.154,90.5-35.769,129.231-7.154,43.577,29.269,41.269,38.308c-2.346,9.038-60.616,48-64.846,65.039-4.192,17.039-24,46.077-25.308,46.077-1.308.038-17.616-33.692-30.654-51.346C256.772,173.221,211.31,131.106,211.31,131.106Z" transform="translate(-103.541 42.087)" fill="#10141e"/>
        <path id="Path_42" data-name="Path 42" d="M217.6,81.165c-.846,11.385,10.539,50.5,22.731,67.346s30.308,27.346,41,28.192,27.5-11.654,38.846-33.962c11.385-22.308,20.346-63.693,20.346-63.693Z" transform="translate(-81.641 46.566)" fill="#ffb18f"/>
        <path id="Path_43" data-name="Path 43" d="M339.642,82.955a26.7,26.7,0,0,0-3.654-3.885L217.6,81.108c-.654,8.731,5.923,33.885,14.539,52.692,13.462-4.5,27.154-9.269,35.154-12.846,7.577-3.423,3.038-10.769,9.923-12.038s5.654,11.385,11.538,13.038c4.192,1.192,22.808,8.154,35.077,12.846C331.373,116.647,337.411,92.378,339.642,82.955Z" transform="translate(-81.641 46.623)" fill="#db826a"/>
        <path id="Path_44" data-name="Path 44" d="M210.58,107.721s21-24,81.808-23.577C353.234,84.567,383,108.913,383,108.913s-53.577-20.346-94.654-18.885C253.426,91.3,210.58,107.721,210.58,107.721Z" transform="translate(-101.503 61.049)" fill="#85888d"/>
        <path id="Path_45" data-name="Path 45" d="M208.421,186.133c-1.462-.385,26.115-92.193,62.462-117.577,20.846-14.538,59.616-14.192,78.539,1.808,24.808,20.962,52.192,114.923,50.923,117.885s-32.616-24.462-97-26.115C237.729,160.48,213.036,187.4,208.421,186.133Z" transform="translate(-107.805 -13.364)" fill="#424751"/>
        <path id="Path_46" data-name="Path 46" d="M208.38,95.052s3.115-6.269,6.577-4.846c24.308,10.115,77.423,59.346,85.577,86.039,10.539,34.539,5.923,54.769,5.923,54.769s-16.423-44.616-40.846-75.77C246.149,130.4,208.38,95.052,208.38,95.052Z" transform="translate(-107.764 77.718)" fill="#2b303b"/>
        <path id="Path_47" data-name="Path 47" d="M330.067,97.283s-4.423-8.654-7.154-7.154c-22.692,12.269-76.385,59.846-84.5,86.462-10.539,34.5-2.231,54.577-2.231,54.577s12.308-43,36.692-74.154C292.374,132.129,330.067,97.283,330.067,97.283Z" transform="translate(-37.489 77.602)" fill="#2b303b"/>
        <path id="Path_48" data-name="Path 48" d="M230.843,95.411s5.385-3.346,8.192-4c1.962-.462,10.115,4.808,9.077,5.462C247.035,97.488,230,96.873,230.843,95.411Z" transform="translate(-43.919 81.666)" fill="#db826a"/>
        <path id="Path_49" data-name="Path 49" d="M229.154,100.41c-.462-1.154,7.692-3.538,16.769-3.846,9.077-.269,14.923.692,13.423,1.5-.923.5-8.038.077-13.269.5C240.846,98.949,230.462,103.68,229.154,100.41Z" transform="matrix(0.996, 0.087, -0.087, 0.996, -38.13, 75.362)" fill="#7c4639"/>
        <path id="Path_51" data-name="Path 51" d="M269.352,60.26c-22.769,0-42.462,74.231-47.192,98.693a193.019,193.019,0,0,1,42-3.231,212.578,212.578,0,0,1,44.846,5.846C305.006,135.491,299.891,60.26,269.352,60.26Z" transform="translate(-68.544 -6.914)" fill="#2d3037"/>
        <path id="Path_52" data-name="Path 52" d="M286.814,205.23a133.159,133.159,0,0,0-34.039-75.039c-14.654-16-27.539-26.192-38.116-32.731,11.231,11.423,24.077,25.077,33.039,36.5C267.468,159.191,281.968,193.114,286.814,205.23Z" transform="translate(-89.89 98.964)" fill="#575b64"/>
        <path id="Path_53" data-name="Path 53" d="M251.879,104.21C223.34,126.71,189.84,212.595,184.763,240.4c-5.038,27.769,89.77,37.731,107.039,28.462s-9.769-125.308-19.885-138.77C261.84,116.594,257.764,99.556,251.879,104.21Z" transform="translate(-175.532 115.945)" fill="#575b64"/>
        <path id="Path_54" data-name="Path 54" d="M269.035,132.142c8.231-10.5,19.692-22.769,30.231-33.462-9.077,6.423-19.539,15.462-31.077,28.039A132.776,132.776,0,0,0,234.42,199.8C238.843,186.642,250.382,155.949,269.035,132.142Z" transform="translate(-33.65 102.436)" fill="#575b64"/>
        <path id="Path_55" data-name="Path 55" d="M243.184,116.59s-10.539,29.885-17.269,36.192-18.962,1.692-26.539,7.154-8.846,21.885-8.846,21.885,16.885-12.615,33.5-6.308,28.808-5.885,28.808-5.885Z" transform="translate(-158.568 153.411)" fill="#2b303b"/>
        <path id="Path_56" data-name="Path 56" d="M234.8,135.447s-24.039-6.231-33.885,2.615c-7.038,6.308-6.846,13.885-6.846,13.885s5.808-6.808,13.115-9.308c10.923-3.769,35.385,11.308,25.5-1.192Z" transform="translate(-148.493 201.016)" fill="#2b303b" opacity="0.51"/>
        <path id="Path_57" data-name="Path 57" d="M295.719,104.21c28.5,22.5,62.039,108.385,67.116,136.193,5.038,27.769-89.77,37.731-107.039,28.462s9.769-125.308,19.885-138.77C285.757,116.594,289.834,99.556,295.719,104.21Z" transform="translate(11.167 115.945)" fill="#575b64"/>
        <path id="Path_58" data-name="Path 58" d="M267.032,116.59s10.538,29.885,17.269,36.192,18.923,1.692,26.5,7.154,8.846,21.885,8.846,21.885-16.885-12.615-33.5-6.308-28.808-5.885-28.808-5.885Z" transform="translate(31.584 153.411)" fill="#2b303b"/>
        <path id="Path_59" data-name="Path 59" d="M259.559,135.447s24.039-6.231,33.885,2.615c7.038,6.308,6.846,13.885,6.846,13.885s-5.808-6.808-13.115-9.308c-10.923-3.769-35.385,11.308-25.5-1.192Z" transform="translate(37.365 201.016)" fill="#2b303b" opacity="0.46"/>
        <path id="Path_60" data-name="Path 60" d="M292.672,143.61s-3.962-10.846-11.539-13.769c-7.577-2.962-18.423-10.731-18.423-10.731s4,19.615,8.192,21.039C280.787,143.61,292.672,143.61,292.672,143.61Z" transform="translate(46.868 160.583)" fill="#2b303b" opacity="0.46"/>
        <rect id="Rectangle_20" data-name="Rectangle 20" width="237.424" height="137.654" transform="translate(82.077 250.655)" fill="#aaa"/>
        <rect id="Rectangle_21" data-name="Rectangle 21" width="237.424" height="6.769" transform="translate(82.077 388.155)" fill="#8c8c8c"/>
        <g id="Group_7" data-name="Group 7" transform="translate(124.693 386.309)">
          <rect id="Rectangle_22" data-name="Rectangle 22" width="25.269" height="2.346" fill="#cecece"/>
          <rect id="Rectangle_23" data-name="Rectangle 23" width="25.269" height="2.346" transform="translate(126.962)" fill="#cecece"/>
        </g>
        <rect id="Rectangle_24" data-name="Rectangle 24" width="237.424" height="3.192" transform="translate(82.077 250.962)" fill="#cecece"/>
        <path id="Path_61" data-name="Path 61" d="M193.58,143.61s3.962-10.846,11.538-13.769c7.577-2.962,18.423-10.731,18.423-10.731s-4.039,19.615-8.192,21.039C205.426,143.61,193.58,143.61,193.58,143.61Z" transform="translate(-149.888 160.583)" fill="#2b303b" opacity="0.51"/>
      </g>
    </g>
    <path id="Path_302" data-name="Path 302" d="M115.04,223.593a3.693,3.693,0,0,0-3.01,1.549l-3.3-1.226a21.551,21.551,0,0,0-.256-22.167L105.233,205a17.108,17.108,0,0,1-.725,17.352l-8.18-3.041h0l-.005-.005a8.839,8.839,0,1,1,0-12.5h0l.793.793,5.859-5.864,3.135-3.135,2.551-2.551h0a3.707,3.707,0,0,0,5.54-3.219,3.665,3.665,0,0,0-.49-1.842,3.759,3.759,0,0,0-1.628-1.508,3.663,3.663,0,0,0-1.586-.355,3.7,3.7,0,0,0-3.7,3.7,3.762,3.762,0,0,0,.355,1.591h0l-2.608,2.608a21.866,21.866,0,0,0-3.156-2.368,21.577,21.577,0,0,0-22.641.01l3.25,3.24a17.147,17.147,0,0,1,19.417,2.259l-2.765,2.765a13.282,13.282,0,0,0-17.148.005l-2.77-2.76-3.141-3.135L73.2,194.655A3.728,3.728,0,1,0,71.6,196.2l2.415,2.41a21.226,21.226,0,0,0-2.363,3.161,21.592,21.592,0,0,0-1.769,18.99l3.787-2.588A17.185,17.185,0,0,1,74.9,205.011a17.3,17.3,0,0,1,2.259-3.271l2.77,2.76a13.3,13.3,0,0,0-1.4,15.093L75.3,221.8l-3.667,2.5-3.876,2.645a3.666,3.666,0,0,0-2.29-.8,3.707,3.707,0,1,0,3.542,2.624l3.876-2.645a21.575,21.575,0,0,0,31.8,2.822l-4.826-1.795a17.166,17.166,0,0,1-23.309-3.527l3.229-2.2c.287.35.59.689.913,1.012a13.274,13.274,0,0,0,18.463.287l3.97,1.476,4.361,1.622,3.855,1.435v.047a3.7,3.7,0,1,0,3.7-3.709Z" transform="translate(1184.24 307.407)" fill="#fff"/>
  </g>
</svg>
