<svg xmlns="http://www.w3.org/2000/svg" width="298.066" height="55.074" viewBox="0 0 298.066 55.074">
  <g id="Osint_on_China_raw_fonts" data-name="Osint on China_raw fonts" transform="translate(-61.76 -189.12)">
    <path id="Path_2" data-name="Path 2" d="M126.2,230.817a4.467,4.467,0,0,0-3.641,1.874l-3.988-1.483a26.066,26.066,0,0,0-.309-26.811l-3.925,3.925a20.692,20.692,0,0,1-.877,20.987l-9.894-3.679h0l-.006-.006a10.691,10.691,0,1,1,0-15.119h0l.959.959,7.086-7.092,3.792-3.792,3.086-3.086h0a4.484,4.484,0,0,0,6.7-3.893,4.432,4.432,0,0,0-.593-2.227,4.547,4.547,0,0,0-1.969-1.824,4.43,4.43,0,0,0-1.918-.429,4.481,4.481,0,0,0-4.48,4.48,4.55,4.55,0,0,0,.429,1.925h0L113.5,198.68a26.449,26.449,0,0,0-3.818-2.865,26.1,26.1,0,0,0-27.385.013l3.931,3.919a20.74,20.74,0,0,1,23.486,2.732l-3.344,3.344a16.066,16.066,0,0,0-20.741.006l-3.351-3.338-3.8-3.792-2.89-2.884a4.51,4.51,0,1,0-1.925,1.868l2.922,2.915a25.674,25.674,0,0,0-2.858,3.824,26.117,26.117,0,0,0-2.139,22.968l4.581-3.13a20.785,20.785,0,0,1,1.483-15.92,20.922,20.922,0,0,1,2.732-3.956l3.351,3.338a16.084,16.084,0,0,0-1.7,18.255l-3.906,2.669L73.7,231.668l-4.688,3.2a4.434,4.434,0,0,0-2.77-.965,4.484,4.484,0,1,0,4.285,3.174l4.688-3.2a26.1,26.1,0,0,0,38.466,3.414l-5.837-2.171a20.763,20.763,0,0,1-28.193-4.266l3.906-2.663c.347.423.713.833,1.1,1.224a16.055,16.055,0,0,0,22.331.347l4.8,1.786,5.275,1.962,4.663,1.735v.057a4.48,4.48,0,1,0,4.474-4.486Z" transform="translate(0 0)" fill="#db6f47"/>
    <g id="Group_6" data-name="Group 6" transform="translate(139.304 197.739)">
      <g id="Group_3" data-name="Group 3" transform="translate(2.694 31.424)">
        <path id="Path_3" data-name="Path 3" d="M188.92,260.385V252.8h1.205v7.585Z" transform="translate(-188.92 -252.661)" fill="#111827"/>
        <path id="Path_4" data-name="Path 4" d="M202.081,252.81a4.27,4.27,0,0,1,1.672.316,3.11,3.11,0,0,1,1.193.852,3.994,3.994,0,0,1,.688,1.186,4.15,4.15,0,0,1,.246,1.376,4.086,4.086,0,0,1-.208,1.413,3.972,3.972,0,0,1-.675,1.23,3.14,3.14,0,0,1-1.205.883,4.239,4.239,0,0,1-1.71.328H199.21V252.81Zm-1.672,6.411h1.666a2.412,2.412,0,0,0,1.962-.8,2.764,2.764,0,0,0,.637-1.9,3.091,3.091,0,0,0-.284-1.237,2.193,2.193,0,0,0-.864-.94,2.666,2.666,0,0,0-1.458-.379H200.4v5.25Z" transform="translate(-192.717 -252.665)" fill="#111827"/>
        <path id="Path_5" data-name="Path 5" d="M223.033,260.385h-5.6V252.8H223v1.18h-4.354v2.044h4.184v1.129h-4.184v2.038h4.385v1.193Z" transform="translate(-199.44 -252.661)" fill="#111827"/>
        <path id="Path_6" data-name="Path 6" d="M239.367,258.2v-5.4h1.212v7.585h-.921l-4.3-5.351v5.351H234.13V252.8h.934Z" transform="translate(-205.602 -252.661)" fill="#111827"/>
        <path id="Path_7" data-name="Path 7" d="M254,253.9H251.51V252.81h6.2V253.9h-2.48v6.487H254Z" transform="translate(-212.016 -252.665)" fill="#111827"/>
        <path id="Path_8" data-name="Path 8" d="M268.49,260.385V252.8H269.7v7.585Z" transform="translate(-218.281 -252.661)" fill="#111827"/>
        <path id="Path_9" data-name="Path 9" d="M278.77,260.392V252.82h5.363V254h-4.146v2.309h3.944v1.13h-3.944V260.4H278.77Z" transform="translate(-222.074 -252.669)" fill="#111827"/>
        <path id="Path_10" data-name="Path 10" d="M297.171,256.154l2.158-3.344h1.464v.057l-3.01,4.417v3.111h-1.212v-3.111l-2.922-4.417v-.057h1.439Z" transform="translate(-227.565 -252.665)" fill="#111827"/>
        <path id="Path_11" data-name="Path 11" d="M311.683,263.723q-.01.038-.019.095c-.013.038-.025.076-.038.12s-.032.107-.057.189-.057.164-.088.252-.076.2-.126.353-.1.309-.151.467h-.669l.24-1.029a.5.5,0,0,1-.454-.543.577.577,0,0,1,.139-.4.594.594,0,0,1,.347-.2,1.083,1.083,0,0,1,.4,0,.576.576,0,0,1,.341.208.644.644,0,0,1,.139.423C311.689,263.679,311.683,263.7,311.683,263.723Z" transform="translate(-233.716 -256.429)" fill="#111827"/>
        <path id="Path_12" data-name="Path 12" d="M327.368,252.81v6.455h3.994v1.129H326.15V252.81Z" transform="translate(-239.558 -252.665)" fill="#111827"/>
        <path id="Path_13" data-name="Path 13" d="M347.3,253.747a4.13,4.13,0,0,1,1.01,2.8,4.423,4.423,0,0,1-.246,1.477,3.936,3.936,0,0,1-.707,1.249,3.193,3.193,0,0,1-1.218.871,4.349,4.349,0,0,1-1.71.322,4.24,4.24,0,0,1-1.71-.328,3.237,3.237,0,0,1-1.218-.883,4.1,4.1,0,0,1-.707-1.243,4.312,4.312,0,0,1-.246-1.458,3.923,3.923,0,0,1,1.092-2.852,3.77,3.77,0,0,1,2.808-1.123A3.6,3.6,0,0,1,347.3,253.747Zm-5.376,3.824a2.879,2.879,0,0,0,.473.89,2.292,2.292,0,0,0,.839.65,2.788,2.788,0,0,0,1.2.246,2.48,2.48,0,0,0,2.007-.8,2.971,2.971,0,0,0,.669-1.988,3.454,3.454,0,0,0-.265-1.363,2.475,2.475,0,0,0-.89-1.066,2.609,2.609,0,0,0-1.5-.448,2.51,2.51,0,0,0-1.988.8,3.029,3.029,0,0,0-.707,2.082A3.539,3.539,0,0,0,341.926,257.571Z" transform="translate(-244.871 -252.58)" fill="#111827"/>
        <path id="Path_14" data-name="Path 14" d="M366.6,259.343a3.886,3.886,0,0,1-2.846,1.129,4.6,4.6,0,0,1-1.773-.322,3.3,3.3,0,0,1-1.256-.877,3.924,3.924,0,0,1-.719-1.237,4.248,4.248,0,0,1-.246-1.451,4.411,4.411,0,0,1,.246-1.47,4.093,4.093,0,0,1,.726-1.268,3.26,3.26,0,0,1,1.262-.9,4.49,4.49,0,0,1,1.76-.334,3.773,3.773,0,0,1,2.77,1.148l-.814.782a2.688,2.688,0,0,0-1.962-.782,2.619,2.619,0,0,0-2.082.833,2.87,2.87,0,0,0-.713,1.981,2.924,2.924,0,0,0,.713,1.956,2.614,2.614,0,0,0,2.082.808,2.915,2.915,0,0,0,1.085-.215,2.84,2.84,0,0,0,.934-.606Z" transform="translate(-251.96 -252.591)" fill="#111827"/>
        <path id="Path_15" data-name="Path 15" d="M382.668,258.794H378.56l-.713,1.59H376.56l3.4-7.585h1.319l3.4,7.585h-1.287Zm-2.044-4.714-1.6,3.609h3.205Z" transform="translate(-258.159 -252.661)" fill="#111827"/>
        <path id="Path_16" data-name="Path 16" d="M396.643,253.9H394.15V252.81h6.2V253.9h-2.48v6.487h-1.224Z" transform="translate(-264.65 -252.665)" fill="#111827"/>
        <path id="Path_17" data-name="Path 17" d="M416.723,260.385h-5.6V252.8h5.565v1.18h-4.354v2.044h4.184v1.129h-4.184v2.038h4.392Z" transform="translate(-270.911 -252.661)" fill="#111827"/>
        <path id="Path_18" data-name="Path 18" d="M428.713,263.723q-.009.038-.019.095c-.013.038-.025.076-.038.12s-.032.107-.057.189-.057.164-.088.252-.076.2-.126.353-.1.309-.151.467h-.669l.24-1.029a.5.5,0,0,1-.454-.543.577.577,0,0,1,.139-.4.594.594,0,0,1,.347-.2,1.082,1.082,0,0,1,.4,0,.576.576,0,0,1,.341.208.644.644,0,0,1,.139.423A.2.2,0,0,0,428.713,263.723Z" transform="translate(-276.9 -256.429)" fill="#111827"/>
        <path id="Path_19" data-name="Path 19" d="M447.938,258.794H443.83l-.713,1.59H441.83l3.4-7.585h1.319l3.4,7.585h-1.287Zm-2.044-4.714-1.6,3.609H447.5Z" transform="translate(-282.243 -252.661)" fill="#111827"/>
        <path id="Path_20" data-name="Path 20" d="M467.38,259.343a3.886,3.886,0,0,1-2.846,1.129,4.6,4.6,0,0,1-1.773-.322,3.3,3.3,0,0,1-1.256-.877,3.923,3.923,0,0,1-.719-1.237,4.247,4.247,0,0,1-.246-1.451,4.41,4.41,0,0,1,.246-1.47,4.093,4.093,0,0,1,.726-1.268,3.259,3.259,0,0,1,1.262-.9,4.49,4.49,0,0,1,1.76-.334,3.773,3.773,0,0,1,2.77,1.148l-.814.782a2.688,2.688,0,0,0-1.962-.782,2.619,2.619,0,0,0-2.082.833,2.87,2.87,0,0,0-.713,1.981,2.925,2.925,0,0,0,.713,1.956,2.614,2.614,0,0,0,2.082.808,2.914,2.914,0,0,0,1.085-.215,2.841,2.841,0,0,0,.934-.606Z" transform="translate(-289.147 -252.591)" fill="#111827"/>
        <path id="Path_21" data-name="Path 21" d="M479.962,253.9H477.47V252.81h6.2V253.9h-2.48v6.487h-1.224Z" transform="translate(-295.394 -252.665)" fill="#111827"/>
        <path id="Path_22" data-name="Path 22" d="M494.45,260.385V252.8h1.205v7.585Z" transform="translate(-301.66 -252.661)" fill="#111827"/>
        <path id="Path_23" data-name="Path 23" d="M510.732,253.747a4.129,4.129,0,0,1,1.01,2.8,4.422,4.422,0,0,1-.246,1.477,3.934,3.934,0,0,1-.707,1.249,3.193,3.193,0,0,1-1.218.871,4.348,4.348,0,0,1-1.71.322,4.239,4.239,0,0,1-1.71-.328,3.235,3.235,0,0,1-1.218-.883,4.1,4.1,0,0,1-.707-1.243,4.309,4.309,0,0,1-.246-1.458,3.922,3.922,0,0,1,1.092-2.852,3.769,3.769,0,0,1,2.808-1.123A3.6,3.6,0,0,1,510.732,253.747Zm-5.376,3.824a2.877,2.877,0,0,0,.473.89,2.292,2.292,0,0,0,.839.65,2.788,2.788,0,0,0,1.2.246,2.48,2.48,0,0,0,2.007-.8,2.971,2.971,0,0,0,.669-1.988,3.454,3.454,0,0,0-.265-1.363,2.475,2.475,0,0,0-.89-1.066,2.609,2.609,0,0,0-1.5-.448,2.51,2.51,0,0,0-1.988.8,3.029,3.029,0,0,0-.707,2.082A3.537,3.537,0,0,0,505.356,257.571Z" transform="translate(-305.177 -252.58)" fill="#111827"/>
        <path id="Path_24" data-name="Path 24" d="M529.147,258.2v-5.4h1.212v7.585h-.921l-4.3-5.351v5.351H523.91V252.8h.934Z" transform="translate(-312.531 -252.661)" fill="#111827"/>
      </g>
      <g id="Group_5" data-name="Group 5">
        <g id="Group_4" data-name="Group 4">
          <path id="Path_25" data-name="Path 25" d="M204.766,206.251a12.254,12.254,0,0,1,3,8.348,13.216,13.216,0,0,1-.726,4.4,11.926,11.926,0,0,1-2.1,3.729,9.372,9.372,0,0,1-3.635,2.6,12.976,12.976,0,0,1-5.1.953,12.628,12.628,0,0,1-5.1-.984,9.631,9.631,0,0,1-3.635-2.631,11.985,11.985,0,0,1-2.1-3.7,12.875,12.875,0,0,1-.726-4.341,11.66,11.66,0,0,1,3.262-8.506,11.181,11.181,0,0,1,8.361-3.344Q201.763,202.818,204.766,206.251Zm-16.034,11.4a8.648,8.648,0,0,0,1.407,2.65,6.629,6.629,0,0,0,2.5,1.937,8.351,8.351,0,0,0,3.565.726,7.375,7.375,0,0,0,5.976-2.373,8.9,8.9,0,0,0,2-5.925,10.422,10.422,0,0,0-.789-4.07,7.328,7.328,0,0,0-2.65-3.18,7.72,7.72,0,0,0-4.474-1.338,7.5,7.5,0,0,0-5.925,2.391,9.012,9.012,0,0,0-2.114,6.2A10.719,10.719,0,0,0,188.733,217.646Z" transform="translate(-184.65 -202.78)" fill="#111827"/>
          <path id="Path_26" data-name="Path 26" d="M236.3,217.7a5.952,5.952,0,0,0-4.2-1.483,4.964,4.964,0,0,0-2.467.467,1.572,1.572,0,0,0-.921,1.439c.019,1.142,1.174,1.817,3.452,2.032a21.745,21.745,0,0,1,2.341.341,10.47,10.47,0,0,1,2.1.713,3.684,3.684,0,0,1,1.71,1.5,4.716,4.716,0,0,1,.6,2.455,4.425,4.425,0,0,1-1.874,3.647,7.939,7.939,0,0,1-4.909,1.388,9.207,9.207,0,0,1-7.263-2.941l1.742-2.354a7.315,7.315,0,0,0,5.584,2.354,5.019,5.019,0,0,0,2.354-.517,1.729,1.729,0,0,0,1.035-1.552,1.546,1.546,0,0,0-.89-1.514,8,8,0,0,0-2.8-.675q-6.455-.615-6.487-4.777a3.971,3.971,0,0,1,2.019-3.635,8.755,8.755,0,0,1,4.6-1.212,8.865,8.865,0,0,1,6.133,2.133Z" transform="translate(-199.491 -206.691)" fill="#111827"/>
          <path id="Path_27" data-name="Path 27" d="M252.8,203.6a2.175,2.175,0,0,1,2.063,0,1.856,1.856,0,0,1,1.035,1.811,1.887,1.887,0,0,1-1.035,1.824,2.141,2.141,0,0,1-2.063,0,1.886,1.886,0,0,1-1.035-1.824A1.866,1.866,0,0,1,252.8,203.6Zm-.644,6.424V226h3.325V210.021Z" transform="translate(-209.417 -202.986)" fill="#111827"/>
          <path id="Path_28" data-name="Path 28" d="M276.9,229.8v-8.525a4.8,4.8,0,0,0-1.13-3.344,4.065,4.065,0,0,0-3.161-1.243,4.109,4.109,0,0,0-3.193,1.388,4.872,4.872,0,0,0-1.262,3.388v8.329H264.83V213.847h3.035l.2,2.322a6.951,6.951,0,0,1,5.357-2.549,6.467,6.467,0,0,1,4.922,2.032,7.805,7.805,0,0,1,1.918,5.584v8.556H276.9Z" transform="translate(-214.236 -206.78)" fill="#111827"/>
          <path id="Path_29" data-name="Path 29" d="M299.95,206.77v4.619h4.65v2.871h-4.682v7.585q0,2.612,2.291,2.612a4.577,4.577,0,0,0,2.032-.549l.972,2.84a7.9,7.9,0,0,1-3.2.713,5.189,5.189,0,0,1-4.019-1.369,5.853,5.853,0,0,1-1.407-4.247V214.26H293.52v-2.871h3.067V207.13Z" transform="translate(-224.823 -204.252)" fill="#111827"/>
          <path id="Path_30" data-name="Path 30" d="M338.523,215.906a8.8,8.8,0,0,1,.032,11.85,7.98,7.98,0,0,1-5.988,2.341,7.874,7.874,0,0,1-5.938-2.341,8.889,8.889,0,0,1,.019-11.863,8.65,8.65,0,0,1,11.875.013Zm-9.5,2.208a5.385,5.385,0,0,0-1.338,3.71,5.322,5.322,0,0,0,1.325,3.679,5.012,5.012,0,0,0,7.118,0,5.672,5.672,0,0,0-.051-7.376,4.837,4.837,0,0,0-7.055-.013Z" transform="translate(-236.206 -206.75)" fill="#111827"/>
          <path id="Path_31" data-name="Path 31" d="M368.1,229.8v-8.525a4.8,4.8,0,0,0-1.129-3.344,4.065,4.065,0,0,0-3.161-1.243,4.109,4.109,0,0,0-3.193,1.388,4.872,4.872,0,0,0-1.262,3.388v8.329H356.03V213.847h3.035l.2,2.322a6.951,6.951,0,0,1,5.357-2.549,6.467,6.467,0,0,1,4.922,2.032,7.805,7.805,0,0,1,1.918,5.584v8.556H368.1Z" transform="translate(-247.889 -206.78)" fill="#111827"/>
          <path id="Path_32" data-name="Path 32" d="M415.917,222.915a11.573,11.573,0,0,1-8.493,3.357,13.564,13.564,0,0,1-5.294-.972,9.846,9.846,0,0,1-3.748-2.612,11.545,11.545,0,0,1-2.145-3.679,13.242,13.242,0,0,1,.019-8.7,12.191,12.191,0,0,1,2.164-3.78,9.885,9.885,0,0,1,3.761-2.694,13.17,13.17,0,0,1,5.244-1,11.277,11.277,0,0,1,8.266,3.42l-2.423,2.322a7.983,7.983,0,0,0-5.843-2.322,7.76,7.76,0,0,0-6.2,2.486,9.131,9.131,0,0,0,0,11.73,7.786,7.786,0,0,0,6.2,2.4,8.672,8.672,0,0,0,3.231-.644,8.19,8.19,0,0,0,2.776-1.8Z" transform="translate(-262.457 -202.798)" fill="#111827"/>
          <path id="Path_33" data-name="Path 33" d="M436.085,203.446v9.042a6.7,6.7,0,0,1,10.077-.562,8.509,8.509,0,0,1,1.647,5.534v8.588h-3.325v-8.563a4.742,4.742,0,0,0-1.066-3.344,3.816,3.816,0,0,0-2.94-1.148,4.082,4.082,0,0,0-3.149,1.369,4.85,4.85,0,0,0-1.243,3.376v8.3H432.76v-22.6h3.325Z" transform="translate(-276.202 -203.024)" fill="#111827"/>
          <path id="Path_34" data-name="Path 34" d="M463.825,203.6a2.175,2.175,0,0,1,2.063,0,1.856,1.856,0,0,1,1.035,1.811,1.886,1.886,0,0,1-1.035,1.824,2.141,2.141,0,0,1-2.063,0,1.886,1.886,0,0,1-1.035-1.824A1.847,1.847,0,0,1,463.825,203.6Zm-.65,6.424V226H466.5V210.021Z" transform="translate(-287.283 -202.986)" fill="#111827"/>
          <path id="Path_35" data-name="Path 35" d="M487.911,229.8v-8.525a4.8,4.8,0,0,0-1.13-3.344,4.065,4.065,0,0,0-3.161-1.243,4.109,4.109,0,0,0-3.193,1.388,4.872,4.872,0,0,0-1.262,3.388v8.329H475.84V213.847h3.035l.2,2.322a6.951,6.951,0,0,1,5.357-2.549,6.468,6.468,0,0,1,4.922,2.032,7.806,7.806,0,0,1,1.918,5.584v8.556h-3.357Z" transform="translate(-292.099 -206.78)" fill="#111827"/>
          <path id="Path_36" data-name="Path 36" d="M519.259,213.837h3.231v15.914h-3.161l-.164-2.581a4.948,4.948,0,0,1-2.309,2.227,7.074,7.074,0,0,1-3.18.776,7.982,7.982,0,0,1-5.875-2.2,8.243,8.243,0,0,1-2.291-6.2,7.967,7.967,0,0,1,2.341-6.083,8.248,8.248,0,0,1,5.893-2.209,6.808,6.808,0,0,1,3.2.776,5.249,5.249,0,0,1,2.228,2.1Zm-8.941,4.114a5.076,5.076,0,0,0-1.483,3.824,5.138,5.138,0,0,0,1.483,3.843A5.063,5.063,0,0,0,514,227.069a5.444,5.444,0,0,0,2.537-.581,4.144,4.144,0,0,0,1.679-1.514,7.268,7.268,0,0,0,.839-2.051,4.665,4.665,0,0,0,0-2.246,7.2,7.2,0,0,0-.839-2.063,4.1,4.1,0,0,0-1.679-1.514,5.445,5.445,0,0,0-2.537-.581A5.048,5.048,0,0,0,510.318,217.951Z" transform="translate(-303.047 -206.732)" fill="#111827"/>
        </g>
      </g>
    </g>
  </g>
</svg>
