<svg xmlns="http://www.w3.org/2000/svg" width="160.061" height="48.503" viewBox="0 0 160.061 48.503">
  <g id="We-Accept-Monero-en" transform="translate(1)">
    <path id="Path_324" data-name="Path 324" d="M5.023,0H155.038a5.023,5.023,0,0,1,5.023,5.023V43.48a5.023,5.023,0,0,1-5.023,5.023H5.023A5.023,5.023,0,0,1,0,43.48V5.023A5.023,5.023,0,0,1,5.023,0Z" transform="translate(-1)" fill="#fff"/>
    <g id="Group_37" data-name="Group 37" transform="translate(9.488 6.274)">
      <g id="Group_34" data-name="Group 34" transform="translate(41.471 14.744)">
        <path id="Path_308" data-name="Path 308" d="M157.3,31.2h10.812v3.109h-7.66V37.72h7.66v3.053h-7.66v3.985h7.66v3.12H157.3Z" transform="translate(-102.619 -31.199)" fill="#4d4d4d"/>
        <path id="Path_309" data-name="Path 309" d="M133.209,31.2h3.039L143.4,42.174V31.2h3.176V47.878h-3.052L136.384,36.94V47.878h-3.175Z" transform="translate(-94.757 -31.199)" fill="#4d4d4d"/>
        <path id="Path_310" data-name="Path 310" d="M79.009,31.2h3.106l3.854,11.633L89.883,31.2h3.06l2.811,16.679H92.692L90.9,37.345,87.351,47.878h-2.8l-3.5-10.533L79.224,47.878h-3.1Z" transform="translate(-76.129 -31.199)" fill="#4d4d4d"/>
        <path id="Path_311" data-name="Path 311" d="M114.434,31.2a8.34,8.34,0,1,0,8.339,8.341A8.339,8.339,0,0,0,114.434,31.2Zm0,13.437a5.1,5.1,0,1,1,5.1-5.1A5.1,5.1,0,0,1,114.434,44.636Z" transform="translate(-85.908 -31.199)" fill="#4d4d4d"/>
        <path id="Path_312" data-name="Path 312" d="M186.919,40.514a4.8,4.8,0,0,0-1.631-9.313l-7.615,0V47.878h3.172V40.817h2.77l3.754,7.061h3.472Zm-1.643-2.794h-4.43V34.309h4.43a1.706,1.706,0,1,1,0,3.411Z" transform="translate(-109.267 -31.199)" fill="#4d4d4d"/>
        <path id="Path_313" data-name="Path 313" d="M206.608,31.2a8.34,8.34,0,1,0,8.343,8.341A8.341,8.341,0,0,0,206.608,31.2Zm0,13.437a5.1,5.1,0,1,1,5.1-5.1A5.1,5.1,0,0,1,206.608,44.636Z" transform="translate(-115.988 -31.199)" fill="#4d4d4d"/>
      </g>
      <g id="Group_35" data-name="Group 35">
        <path id="Path_314" data-name="Path 314" d="M32.546,9.313A18,18,0,0,0,15.479,32.966H20.86V17.844L32.546,29.529,44.233,17.844V32.966h5.381A17.97,17.97,0,0,0,32.546,9.316v0Z" transform="translate(-14.569 -9.313)" fill="#f06a25"/>
        <path id="Path_315" data-name="Path 315" d="M26.022,35.737v9.517H18.443a17.99,17.99,0,0,0,30.736,0H41.6V35.737L33.81,43.523Z" transform="translate(-15.833 -17.936)" fill="#4e4f4f"/>
      </g>
      <g id="Group_36" data-name="Group 36" transform="translate(42.535 4.251)">
        <path id="Path_316" data-name="Path 316" d="M87.181,15.769,85.4,22.762H83.714l-.951-3.673c-.02-.071-.044-.179-.073-.323s-.062-.3-.1-.47-.069-.329-.1-.48a3.468,3.468,0,0,1-.054-.362,3.3,3.3,0,0,1-.054.362q-.044.225-.093.476c-.033.166-.065.323-.1.47s-.059.259-.078.338l-.94,3.663H79.491l-1.782-6.993h1.46l.891,3.82c.039.15.081.34.127.568s.088.457.127.686.069.421.088.577q.028-.245.088-.583c.039-.226.08-.444.123-.656s.08-.377.113-.494l1.019-3.918h1.4l1.019,3.918c.033.117.07.282.113.494s.084.432.123.661.069.421.088.577q.029-.245.088-.583t.132-.676q.073-.338.123-.573l.891-3.82Z" transform="translate(-77.709 -15.67)" fill="#4d4d4e"/>
        <path id="Path_317" data-name="Path 317" d="M96.957,22.762H92.931V15.769h4.026v1.215H94.41v1.538h2.371v1.215H94.41v1.8h2.547Z" transform="translate(-82.677 -15.671)" fill="#4d4d4e"/>
        <path id="Path_318" data-name="Path 318" d="M107.982,22.748l-.509-1.665h-2.546l-.509,1.665h-1.6l2.468-7.023H107.1l2.478,7.023Zm-.862-2.909-.51-1.626c-.033-.111-.075-.251-.127-.421s-.1-.343-.157-.519-.095-.329-.127-.46c-.032.131-.077.292-.132.485s-.108.376-.156.548-.088.3-.113.367l-.5,1.626h1.82Z" transform="translate(-85.904 -15.656)" fill="#4d4d4e"/>
        <path id="Path_319" data-name="Path 319" d="M116.322,16.858a1.5,1.5,0,0,0-1.3.637,2.976,2.976,0,0,0-.451,1.743,3.055,3.055,0,0,0,.416,1.729,1.5,1.5,0,0,0,1.337.612,3.8,3.8,0,0,0,.852-.1,8.32,8.32,0,0,0,.93-.274v1.244a4.984,4.984,0,0,1-.911.274,5.289,5.289,0,0,1-1.009.088,3.25,3.25,0,0,1-1.783-.446,2.639,2.639,0,0,1-1.027-1.254,4.915,4.915,0,0,1-.333-1.886,4.353,4.353,0,0,1,.381-1.871,2.954,2.954,0,0,1,1.112-1.273,3.288,3.288,0,0,1,1.788-.461,4.243,4.243,0,0,1,1.043.132,5.57,5.57,0,0,1,1,.358l-.48,1.205a7.71,7.71,0,0,0-.789-.323A2.353,2.353,0,0,0,116.322,16.858Z" transform="translate(-89.239 -15.623)" fill="#4d4d4e"/>
        <path id="Path_320" data-name="Path 320" d="M124.929,16.858a1.5,1.5,0,0,0-1.3.637,2.971,2.971,0,0,0-.451,1.743,3.055,3.055,0,0,0,.416,1.729,1.5,1.5,0,0,0,1.336.612,3.812,3.812,0,0,0,.854-.1,8.361,8.361,0,0,0,.93-.274v1.244a4.964,4.964,0,0,1-.912.274,5.266,5.266,0,0,1-1.008.088,3.25,3.25,0,0,1-1.783-.446,2.641,2.641,0,0,1-1.028-1.254,4.915,4.915,0,0,1-.333-1.886,4.353,4.353,0,0,1,.381-1.871,2.955,2.955,0,0,1,1.112-1.273,3.286,3.286,0,0,1,1.787-.461,4.244,4.244,0,0,1,1.043.132,5.5,5.5,0,0,1,1,.358l-.48,1.205a7.84,7.84,0,0,0-.789-.323A2.356,2.356,0,0,0,124.929,16.858Z" transform="translate(-92.048 -15.623)" fill="#4d4d4e"/>
        <path id="Path_321" data-name="Path 321" d="M135.037,22.762h-4.026V15.769h4.026v1.215h-2.546v1.538h2.371v1.215h-2.371v1.8h2.546Z" transform="translate(-95.104 -15.671)" fill="#4d4d4e"/>
        <path id="Path_322" data-name="Path 322" d="M141.025,15.769a2.826,2.826,0,0,1,1.975.583,2.091,2.091,0,0,1,.622,1.6,2.605,2.605,0,0,1-.255,1.146,1.923,1.923,0,0,1-.847.852,3.386,3.386,0,0,1-1.612.323h-.637v2.488h-1.478V15.769h2.233Zm-.078,1.215h-.677V19.06h.491a1.747,1.747,0,0,0,.994-.25.906.906,0,0,0,.367-.808Q142.121,16.984,140.946,16.984Z" transform="translate(-97.643 -15.671)" fill="#4d4d4e"/>
        <path id="Path_323" data-name="Path 323" d="M149.92,22.762h-1.479V17h-1.9V15.769h5.279V17h-1.9v5.759Z" transform="translate(-100.172 -15.671)" fill="#4d4d4e"/>
      </g>
    </g>
  </g>
</svg>
