<svg xmlns="http://www.w3.org/2000/svg" viewBox="0 0 400 291.16"><defs><style>.cls-1{fill:#0d141f;}</style></defs><g id="Layer_2" data-name="Layer 2"><g id="Logo"><path class="cls-1" d="M278.14,187.91c-17.71,61.27-70,103.25-136.09,103.25-81.41,0-142-64.47-142-150.24C0,74.47,36.4,20.8,90.65,0l17.16,47.12c-30.19,13.81-51,46.72-51,93.8,0,62.83,37.7,101.62,85.23,101.62,34.63,0,63.59-19.85,77.08-54.63Z"/><path class="cls-1" d="M121.86,103.25C139.57,42,191.83,0,258,0,339.36,0,400,64.47,400,150.24c0,66.45-36.4,120.12-90.65,140.92L292.19,244c30.19-13.81,51-46.72,51-93.8,0-62.83-37.7-101.62-85.23-101.62-34.63,0-63.59,19.85-77.08,54.63Z"/></g></g></svg>